<?xml version="1.0" encoding="UTF-8"?>
<!-- Arcane Computing, Inc. — Cipher, one colour reversed (concept 06). Drawn on a 120x120 grid. -->
<svg xmlns="http://www.w3.org/2000/svg" viewBox="0 0 120 120" width="120" height="120" aria-hidden="true" style="display:block;flex-shrink:0;"><rect x="31.90" y="2.50" width="17.0" height="17.0" rx="2.6" fill="#FFFFFF"/><rect x="51.50" y="2.50" width="17.0" height="17.0" rx="2.6" fill="#FFFFFF"/><rect x="71.10" y="2.50" width="17.0" height="17.0" rx="2.6" fill="#FFFFFF"/><rect x="12.30" y="22.10" width="17.0" height="17.0" rx="2.6" fill="#FFFFFF"/><rect x="90.70" y="22.10" width="17.0" height="17.0" rx="2.6" fill="#FFFFFF"/><rect x="12.30" y="41.70" width="17.0" height="17.0" rx="2.6" fill="#FFFFFF"/><rect x="90.70" y="41.70" width="17.0" height="17.0" rx="2.6" fill="#FFFFFF"/><rect x="12.30" y="61.30" width="17.0" height="17.0" rx="2.6" fill="#FFFFFF"/><rect x="31.90" y="61.30" width="17.0" height="17.0" rx="2.6" fill="#FFFFFF"/><rect x="51.50" y="61.30" width="17.0" height="17.0" rx="2.6" fill="#FFFFFF"/><rect x="71.10" y="61.30" width="17.0" height="17.0" rx="2.6" fill="#FFFFFF"/><rect x="90.70" y="61.30" width="17.0" height="17.0" rx="2.6" fill="#FFFFFF"/><rect x="12.30" y="80.90" width="17.0" height="17.0" rx="2.6" fill="#FFFFFF"/><rect x="90.70" y="80.90" width="17.0" height="17.0" rx="2.6" fill="#FFFFFF"/><rect x="12.30" y="100.50" width="17.0" height="17.0" rx="2.6" fill="#FFFFFF"/><rect x="90.70" y="100.50" width="17.0" height="17.0" rx="2.6" fill="#FFFFFF"/></svg>
